<svg xmlns="http://www.w3.org/2000/svg" viewBox="3923.104 8653.998 307.729 930.877">
  <defs>
    <style>
      .cls-1 {
        fill: #cbdfdc;
      }

      .cls-2 {
        fill: #231815;
      }

      .cls-3 {
        fill: #648c9c;
      }

      .cls-4 {
        fill: #efefef;
      }

      .cls-5 {
        fill: #dcdddd;
      }

      .cls-6 {
        fill: none;
        stroke: #648c9c;
        stroke-miterlimit: 10;
        stroke-width: 0.75px;
      }
    </style>
  </defs>
  <g id="maingirl-02" transform="translate(3923.104 8653.998)">
    <path id="Path_260" data-name="Path 260" class="cls-1" d="M85.186,316.544A100.6,100.6,0,0,0,86.919,332.4a46.015,46.015,0,0,0,1.692,6.354c.5,1.444,4.318,5.309,5.391,6.2,1.98,1.623,3.878,3.342,5.762,5.075-1.141-1.155-1.141-2.53-1.609-17.425.688,12.144,8.334,16.737,9.366,15.279,7.756-8.1,71.087-4.965,90.575-1.527s19.487,0,19.487,0c2.751,0,8.939-2.751,17.191-16.957,1.141,4.346,2.971,7.564-1.939,15.348,6.326-.688,11.786-6.409,14.083-19.254,4.36,6.422.454,13.533.454,13.533,14.44-9.627,12.157-42.413,12.157-42.413s14.66,12.377,17.645,27.148a55.767,55.767,0,0,0,7.33-27.945c-.275-5.927.206-11.58-.853-17.493-.949-5.364-1.692-10.755-2.641-16.118-1.829-10.466-4.318-21.317-10.548-30.146q-14.317-20.285-29.4-39.883a98.112,98.112,0,0,1-11-16.352,38.842,38.842,0,0,1-2.572-7.014c1.155-13.574,5.35-26.859,5.886-40.488a79.765,79.765,0,0,0-8.4-38.315A78.39,78.39,0,0,0,212.508,71.8a75.447,75.447,0,0,0-7.977-7.426,39.883,39.883,0,0,0-10.2-5.5,88.843,88.843,0,0,0-11.332-3.741,75.364,75.364,0,0,0-23.751-2.283c-14.688,1.073-29.169,7.1-39.47,17.617-5.749,5.872-10.081,12.941-14.11,20.079-7.151,12.639-13.615,25.979-15.857,40.336-1.678,10.741-.234,21.523,2.035,32.071,1.623,7.591,3.631,15.128,4.9,22.774,1.375,7.935,1.059,16.049.976,24.122,0,3.713,0,7.426.193,11.126.66,11,1.279,22.678-4.25,32.676l-.344.646c-3.961,7.88-5.13,17.562-6.271,26.13a208.024,208.024,0,0,0-1.857,36.114ZM227.911,181.452a110.016,110.016,0,0,0,7.949,15.967c6.959,12.254,15.884,22.967,23.888,34.382l1.5,2.187C247.715,222.187,231.308,199.8,227.911,181.452Z" transform="translate(-5.572 -21.481)"/>
    <path id="Path_261" data-name="Path 261" class="cls-2" d="M38.833,364.008c3.782,6.876,4.813,15.128,14.1,17.191,14.44-8.939,28.193-45.384,28.193-45.384l25.442-49.853,6.876.688c.344,4.126,8.939,34.959,12.611,44.132s1.829,38.04.454,46.291S98.547,448.132,93.5,463.714s-10.535,74.732-11,98.111,8.252,120.556,7.8,131.1-2.751,15.128-13.753,35.757-11.456,45.838-10.548,55.932,5.5,66.466,4.126,79.3-5.033,25.676-7.33,40.35S71.5,925.349,75.168,925.8s7.33-.454,12.377,5.969,18.8,16.036,25.676,17.878,22.458-.921,32.539,0,10.658-7.866,10.094-11.869-14.674-10.548-22-16.957-33.5-33.928-36.252-40.35,5.5-71.046,10.094-87.549,15.582-52.728,23.379-64.637,13.753-37.6,15.582-49.84S166.829,530.7,166.829,521.076c0-6.876,5.955-6.422,11.91-4.58,3.218,1.375,5.047,103.6,5.5,119.18s7.344,78.39,10.548,88.484,11.456,56.386,12.611,68.763,4.813,75.639,2.517,82.97-16.5,25.209-25.209,34.835-32.552,31.177-28.881,34.849,22,5.5,39.883,2.751,25.662-16.971,28.413-22,7.344-.921,13.753-9.173,2.3-17.425.921-28.427-2.751-25.662-.921-38.507,16.049-66.013,16.971-84.345-15.128-52.26-16.049-60.965,2.3-32.1,7.426-58.229,13.313-130.471,13.148-145.434-6.533-38.672-8.774-51.916-17.466-42.083-17.48-42.083a55.2,55.2,0,0,1,10.81-5.5c3.6-1.21,12.886-4.47,12.886-4.47s20.464-8.252,23.036-9.118,11.869-6.7,11.869-6.7,18.566-16.847,22.348-24.59-4.3-19.419-4.3-19.419-32.36-64.445-42.977-81.484c-10.314-16.5-18.566-33.529-22.692-37.476s-31.4-5.5-37.476-8.939-11.855-11.346-13.065-17.026c8.774-2.572,14.963-13.409,14.963-13.409a4.126,4.126,0,0,0,3.094,1.9c1.884,0,7.729-5.5,12.034-10.149s9.1-14.44,8.76-17.535-7.22,0-7.22,0l3.438-5.666c15.651-37.311,9.971-49,5.336-62.574s-22.183-29.747-57.417-26.474-43.665,60.512-43.665,60.512-.179-1.9-4.3-2.242-7.564,6.189-6.532,11.346,1.719,17.878,4.126,20.629a9.833,9.833,0,0,0,5.845,3.094c.688,6.189,1.375,17.191,5.5,21.66a76.041,76.041,0,0,1,9.283,12.721c0,6.533-.344,16.159-8.252,19.6s-19.941,8.252-27.505,9.627-11-1.375-16.5,4.47c-2.365,2.517-8.967,14.894-15.692,28.138l-1.155.4c-9.283,3.438-29.816,8-33.006,16.283-4.9,12.735-5.157,43.885-5.845,54.543S35.051,357.131,38.833,364.008Zm181.714,8.43c-.619.165-1.169.358-1.692.55-3.837-23.6.839-55.011,5.116-58.311,14.949-19.089,6.876-33.185,7.055-41.946,0,0,49.688,66.521,53.291,73.4a113.818,113.818,0,0,1-3.259,15.307s-15.128-5.68-18.91-7.055-10.314-.509-14.1-.688a81.95,81.95,0,0,0-16.5,2.242c-1.719.688-3.782,6.7-.344,7.041,1.884,0,10.136-1.884,11.855-1.884s3.094,2.063,6.711,2.063,1.031,7.729-2.751,8.073S226.79,370.719,220.547,372.438Zm18.731,8.073s-8.128,3.2-16.792,5.982a47.214,47.214,0,0,1-2.008-5.955A131.24,131.24,0,0,1,239.278,380.511Zm-179-96.186h7.358l-6.794,12.529Z" transform="translate(-23.609 -19.422)"/>
    <path id="Path_262" data-name="Path 262" class="cls-1" d="M192.485,119.139c-3.3,6.024-14.4,9.723-17.287,8.994-2.09-.839-6.2-2.434-7.193-4.456,5.817-1.98,9.806-10.837,12.006-16.5l-.7,1.788c-3.521,6.464-11.456,9.943-18,13.3-2.5-2.751-6.367-3.741-10.039-4.3s-12.377-2.641-12.79-2.585c-3.507.523,1.375-16.228,1.375-16.228a114.15,114.15,0,0,1-9.338,15.6,12.24,12.24,0,0,1-4.552,1.114c-1.059-1,.316-8.155,1.815-15.664a30.146,30.146,0,0,0-5.969,9.283c-1.692,4.841-3.493,9.09-3.493,9.09-3.479.825-12.267,6.876-12.267,6.876,4.36-34.12,14.069-54.323,26.873-61.543,4.03-2.269,20.629-13.161,43.156-5.666s26.13,14.083,32.484,21.825c23.957,29.348-9.283,74.264-9.283,74.264-8.774-4.745-13.464-12.006-18.085-20.849a8.6,8.6,0,0,0,4.208-4.016" transform="translate(2.307 -20.381)"/>
    <path id="Path_263" data-name="Path 263" class="cls-3" d="M198.968,172.853a5.721,5.721,0,0,1,2.627,1.086,5.886,5.886,0,0,1,1.471,2.6,116.54,116.54,0,0,0,11.5,22.981c2.627,4.057,5.639,8.485,4.91,13.258l9.187,3.067A52.1,52.1,0,0,1,192.9,248.4a24.508,24.508,0,0,0-1.169-8.334,54.777,54.777,0,0,1-22.4-22.816c-4.126-7.99-6.23-16.861-7.963-25.676-1.1-5.6-1.912-11.965,1.554-16.5C169.469,166.554,190.318,170.969,198.968,172.853Z" transform="translate(22.711 22.544)"/>
    <path id="Path_264" data-name="Path 264" class="cls-3" d="M94.172,170.584a10.163,10.163,0,0,0-3.356.468,9.929,9.929,0,0,0-3.2,2.242,68.86,68.86,0,0,0-16.077,23.269c-.77,1.87-2.751,11.36-4.635,17.26-3.782,2.393-7.385,11-10.3,14.385,6.491,3.631,18.263,9.1,23.627,14.261,1.843,1.774,4.676,1.637,6.876,2.833,5.941,3.108,12.171,2.751,18.841,3.493,1.2-2.063.66-2.751-.619-4.772-1.953-3.067-.8-4.428,1.9-6.876s4.566-7.977,7.4-10.259c3.548-2.888,5.831-6.986,8.032-11,3.741-6.794,7.564-13.849,8.087-21.578a53.637,53.637,0,0,0-.523-9.723l-1.128-9.709a5.419,5.419,0,0,0-.55-2.09C123.617,163.914,102.039,170.364,94.172,170.584Z" transform="translate(-16.25 21.829)"/>
    <path id="Path_265" data-name="Path 265" class="cls-3" d="M27.26,554.037c6.3-30.008,23.1-56.743,32.181-86.036,4.47-14.468,50.72-105.785,59.384-123.265,3.617-7.248,7.1-19.625,8.664-27.615a63.592,63.592,0,0,0,0-21.592,106.308,106.308,0,0,0-6.079-22.678c-2.145-5.5-4.758-10.92-6.079-16.7-2.6-11.373,0-23.256,3.438-34.382,4.978-16.283,11.759-32.25,22.252-45.645,0,0,47.873-10.507,64.954-2.063s25.552,54.46,25.552,54.46c8.169,9.517,8.252,23.641,5.254,35.757s-8.829,23.572-11.14,35.908c-4.47,23.778,4.277,47.832,12.872,70.455,4.69,12.377,31.989,57.142,38.411,68.5,6.876,12.13,14.083,24.053,20.973,36.169,14.908,26.2,29.692,53.8,35.881,83.575.454,2.2.866,4.428,1.21,6.656-8.719,5.8-19.542,7.261-29.967,8.32q-24.026,2.407-48.134,3.039c-19.157.481-38.507.1-57.156-4.3-9.627-2.269-18.951-5.6-28.578-7.825-29.307-6.808-59.906-3.3-89.8.082C64.351,566.772,27.26,554.037,27.26,554.037Z" transform="translate(-27.26 22.83)"/>
    <path id="Path_266" data-name="Path 266" class="cls-4" d="M136.433,172.467c.11,2.132,1.183,12.721,1.21,13.519.124,3.3,4.937,9.709,5.872,9.242a25.349,25.349,0,0,0,2.751-1.375,3.906,3.906,0,0,0,1.375-1.2,4.456,4.456,0,0,0-.261-3.919,105.408,105.408,0,0,0-5.391-11.332C141.26,176.1,136.144,167.049,136.433,172.467Zm3.809,10.4a29.761,29.761,0,0,1,2.668,4.566,8.705,8.705,0,0,1,.44,6.395,7.29,7.29,0,0,0-.715-1.912,24.933,24.933,0,0,1-2.393-9.118Z" transform="translate(13.704 22.82)"/>
    <path id="Path_267" data-name="Path 267" class="cls-4" d="M137.494,227.592c5.5-7.743,7.124-17.755,6.244-27.216a58.862,58.862,0,0,0-5.391-19.708c-.578-.275-.564.344-.743.949a3.534,3.534,0,0,0,.179,1.884,55.4,55.4,0,0,1-3.053,38.287C136.669,223.494,136.985,225.062,137.494,227.592Z" transform="translate(13.07 26.515)"/>
    <path id="Path_268" data-name="Path 268" class="cls-4" d="M133.443,216.412a12.6,12.6,0,0,0-5.267,3.562c-.5-6.56,7.674-39.965,12.02-37.971,1.375.66-.454,5.652-.7,6.56-1.073,3.809-2.379,7.564-3.576,11.346a42.262,42.262,0,0,0-1.9,9.476c-.11,1.485-.248,2.971-.371,4.47A12.377,12.377,0,0,1,133.443,216.412Z" transform="translate(10.602 27.009)"/>
    <path id="Path_269" data-name="Path 269" class="cls-4" d="M128.747,195.092c.715,1.375,7.839,4.607,10.232,1.1,2.861-4.195,3.4-9.627,3.479-14.715,0-1.843.261-7.8-1.994-9.132a2.049,2.049,0,0,0,0-1.293c-2.379-5.5-10.713,7.289-11.538,9.132a31.877,31.877,0,0,0-2.434,8.719C126.051,191.406,127.564,192.891,128.747,195.092Zm3.328-7.33a48.85,48.85,0,0,1,4.47-9.132c.316-.523.921-1.293,1.568-2.159-2.118,19.144-4.965,18.745-6.3,19.35C130.823,192.121,130.837,191.31,132.075,187.762Z" transform="translate(9.949 22.42)"/>
    <path id="Path_270" data-name="Path 270" class="cls-4" d="M235.183,171.89c-7.44,11.9-7.633,27.189-5.8,41.093s6.67,27.835,5.5,41.808c-1.472,18.415-11,35.441-12.735,53.828A90.684,90.684,0,0,0,227.4,350.1c21.853,55.987,58.05,101.962,83.2,155.088A354.5,354.5,0,0,1,155.6,507.138c-19.034-4.03-37.82-9.627-57.211-11.263s-42.812,2.118-58.6,13.478c-3.246,1.788,4.978-15.554,5.927-18.69,9.421-31.219,60.979-131.571,66.013-141.872,7.509-15.43,13.423-32.1,11.525-50.513-1.774-17.108-10.768-30.613-13.533-47.6-4.222-25.91,4.126-55.162.3-81.141,6.491-1.306,10.865-2.338,19.4-1.375l15.128,38.507c1.21,3.067,2.475,6.257,4.868,8.527,3.521,3.342,8.705,4.126,13.519,4.662,11.841,1.375,26.13,1.76,33.006-8.032,3.246-4.648,3.878-10.548,5.254-16.036,1.912-7.633,5.254-17.988,11.717-22.5C217.112,170.4,222.5,170.033,235.183,171.89Z" transform="translate(-22.843 21.706)"/>
    <path id="Path_271" data-name="Path 271" class="cls-4" d="M154.861,293.5a2.156,2.156,0,0,1-.151.605C154.751,293.913,154.806,293.706,154.861,293.5Z" transform="translate(20.567 68.882)"/>
    <path id="Path_272" data-name="Path 272" class="cls-4" d="M100.66,275.467c4.126.591,8.348,1.128,12.515,1.65,9.1,1.128,18.222,2.118,27.354,2.888a197.928,197.928,0,0,0,29.939.729,121.918,121.918,0,0,0,14.88-1.774,100.7,100.7,0,0,0,13.106-3.521v8.76a7.33,7.33,0,0,0-1.884-4,3.177,3.177,0,0,0-1.183-.825c-1.307-.4-2.6.77-3.094,2.035a39.98,39.98,0,0,1-1.21,3.892,2.874,2.874,0,0,0-4.4-3.328,5.1,5.1,0,0,0-1.678,3.589l-.468-2.365a.523.523,0,0,0-.193-.371.44.44,0,0,0-.371,0,4.608,4.608,0,0,0-2.42,1.554,18.662,18.662,0,0,0-4,7.536c-.839,2.75-1.375,5.584-2.022,8.375a58.876,58.876,0,0,0,.743-12.047,7.632,7.632,0,0,0-.729-3.424,2.861,2.861,0,0,0-2.888-1.6c-1.472.3-2.187,1.953-2.6,3.4.179-.605-2.861-2.847-3.328-3.2a3.149,3.149,0,0,0-3.534-.481c-1.953.784-5.2,1.829-6.147,3.919a3.438,3.438,0,0,0-4.58-2.5c-.4-1.554-2.613-1.98-3.988-1.128a7.275,7.275,0,0,0-2.558,3.975,62.37,62.37,0,0,0-2.022,7.385c0-1.843.385-3.672.371-5.5a6.436,6.436,0,0,0-1.967-4.965,3.342,3.342,0,0,0-4.827.481c-.55-1.279-1.375-2.751-2.751-2.751a2.943,2.943,0,0,0-2.407,1.623,22.736,22.736,0,0,1-1.527,2.641c.811-1.678-1.141-3.631-2.984-3.507a6.876,6.876,0,0,0-4.483,3.026,26.694,26.694,0,0,0-4.593,9.022l1.857-6.711a11.649,11.649,0,0,0,.605-4.043,3.837,3.837,0,0,0-2.132-3.273,2.366,2.366,0,0,0-3.2,1.554c-.715-1.6-1.884-3.452-3.631-3.273-1.265.124-2.118,1.375-2.751,2.407l-5.267,8.045a39.385,39.385,0,0,0,1.87-6.876,4.524,4.524,0,0,0-.248-3.108,2.888,2.888,0,0,0-3.3-1.059,4.8,4.8,0,0,0-2.751,2.462Z" transform="translate(-0.046 62.105)"/>
    <path id="Path_273" data-name="Path 273" class="cls-4" d="M136.42,171.29s1.6,6.876,4.126,9.173,5.735,3.672,7.743,3.136S140.711,169.859,136.42,171.29Z" transform="translate(13.704 22.98)"/>
    <path id="Path_274" data-name="Path 274" class="cls-4" d="M141.339,171.5s-5.075,13.89-13.973,13.038S137.626,169.109,141.339,171.5Z" transform="translate(9.431 23.001)"/>
    <path id="Path_275" data-name="Path 275" class="cls-4" d="M118.182,163.181a3.759,3.759,0,0,1,3.534-.413c4.593,1.141,23.888,16.3,56.028,3.864,6.354-2.462,14.757,4.978,18,5.735-1.086,4.043-5.2,5.088-8.554,7.591a41.064,41.064,0,0,1-11.236,5.5c-5.13,1.76-10.727,3.108-15.926,1.527a6.092,6.092,0,0,1-2.544-1.375c-1.554-1.554-7.922-10.878-7.509-11.153-.908.619-6.381,6.684-9.118,9.7a12.377,12.377,0,0,1-3.933,3.191,13.01,13.01,0,0,1-5.914.688,35.04,35.04,0,0,1-6.56-.784c-8.155-1.939-14.344-8.4-20.024-14.564-.426-.468-3.356-1.967-3.177-2.585S113.712,165.478,118.182,163.181Z" transform="translate(0.504 19.729)"/>
    <path id="Path_276" data-name="Path 276" class="cls-1" d="M194.941,144.15a93.656,93.656,0,0,0-11.332,38.425c-.344,5.033-.289,10.094-1.086,15.128-1.375,8.513-5.1,16.5-9.379,23.957-4,7.014-8.623,13.9-15.059,18.8-2.984,2.269-9.2,5.281-17.617.99-.646-.33-2.929-2.668-2.352-3.589,0,0,9.242,9.627,19.5-5.735,0,0-9.476,3.851-9.627,2.008,4.717-.688,8.169-7.77,10.452-11.951,7.536-13.753,3.782-30.861,8.087-45.906A44.091,44.091,0,0,1,177.7,157.325" transform="translate(14.305 12.836)"/>
    <rect id="Rectangle_77" data-name="Rectangle 77" class="cls-4" width="169.804" height="147.057" transform="translate(227.276 376.905) rotate(180)"/>
    <rect id="Rectangle_78" data-name="Rectangle 78" class="cls-5" width="169.804" height="142.862" transform="translate(227.276 372.71) rotate(180)"/>
    <path id="Path_277" data-name="Path 277" class="cls-2" d="M201.007,285.661c-1.609.248-5.377.344-5.377.344-7.454,0-20.629.8-25.181,2.2s-4.043,5.955-3.809,7.908c2.283-1.031,26.818-1.265,26.818-1.265s-21.784,7-26.941,10.2-4.813,6.533-3.548,9.393c3.2-2.861,16.269-6.189,16.269-6.189-14.66,6.422-11.69,13.189-10.081,16.393,1.719-2.407,5.157-4.923,13.024-9.393-7.151,6.3-6.725,11.566-3.975,12.831,2.063-2.984,7.935-6.216,7.935-6.216a50.06,50.06,0,0,1,13.643-6.491c4.126-1.375,23.71-8.98,23.71-8.98l5.2-2.049S212.82,283.859,201.007,285.661Z" transform="translate(23.368 65.898)"/>
    <path id="Path_278" data-name="Path 278" class="cls-2" d="M67.178,201.448s28.564-3.246,54.928-14.138c1.719,2.641-1.141,7.083-2.861,8.114s-23.613,8.623-23.613,8.623,31.521.8,32.662.8c1.485,2.751-3.438,6.189-8.362,6.533s-31.177,2.751-31.177,2.751-.688,1.5.8,1.5,27.505,2.407,29.692,2.407c2.063,1.6-.234,4.58-2.53,5.157s-29.788,1.6-29.788,1.6-1.155,1.155-.234,1.375,20.863,6.533,22.692,7.454c.11,2.641-1.582,4.648-3.438,4.47s-15.238-2.751-17.645-2.751-18.69.4-22.348.536-4.126,1.8-12.034,0C53.92,235.871,54.773,202.52,67.178,201.448Z" transform="translate(-17.255 29.033)"/>
    <path id="Path_279" data-name="Path 279" class="cls-6" d="M183.86,208.5l5.487-.468,5.474-.481-5.212-5.006-5.212-5.02-.261,5.487Z" transform="translate(31.506 32.868)"/>
    <path id="Path_280" data-name="Path 280" class="cls-6" d="M198.987,207.953l-.3,12.941L175.25,197.474l12.4-.344" transform="translate(28.275 32.718)"/>
    <path id="Path_281" data-name="Path 281" class="cls-6" d="M69.18,296.836l.165-13.106,11.58,11.511,11.153,11.924-12.267.344.811-11.9Z" transform="translate(-11.529 65.216)"/>
    <line id="Line_3" data-name="Line 3" class="cls-6" x1="10.466" y1="10.782" transform="translate(57.458 362.148)"/>
    <path id="Path_282" data-name="Path 282" class="cls-3" d="M206.431,137.644s34.093-40.1-16.022-75.571C172.1,52.666,130.957,39.6,114,83.981c0,0,11.291-20.918,34.217-25.057a54.557,54.557,0,0,1,43.321,10.314c4.126,3.438,12.515,9.957,19.02,27.271S206.431,137.644,206.431,137.644Z" transform="translate(5.29 -21.475)"/>
    <path id="Path_283" data-name="Path 283" class="cls-3" d="M173.176,64.352l3.562-.275a.743.743,0,0,0,.55-.193.729.729,0,0,0,.069-.536,13.6,13.6,0,0,0-2.407-5.226,1.76,1.76,0,0,0-.536-.605,1.568,1.568,0,0,0-.8-.165,11.552,11.552,0,0,0-6.876,1.994,30.12,30.12,0,0,1,3.548,3.7c1.224,1.2,3.081,2.09,4.621,1.375" transform="translate(25.082 -19.738)"/>
    <path id="Path_284" data-name="Path 284" class="cls-3" d="M197.108,59.556c8.155,2.132,16.256,5.391,24.672,4.951-3.136,4.9-9.1,7.069-14.674,8.747a25.8,25.8,0,0,1-6.024,1.293,26.749,26.749,0,0,1-9.751-2.008L177.043,67.67a10.754,10.754,0,0,1-4.263-2.187c-4.813-4.676,4.868-6.876,8.252-7.33a40.089,40.089,0,0,1,16.077,1.4Z" transform="translate(26.854 -19.536)"/>
    <path id="Path_285" data-name="Path 285" class="cls-3" d="M167.411,53.737a55.121,55.121,0,0,1-6.024-12.886L157.426,30a58.118,58.118,0,0,0-3.906,13.753,22.568,22.568,0,0,0,2.255,13.753,24.424,24.424,0,0,0,5.377,6.285c2.448,2.132,11.085,9.888,13.478,4.566S169.955,57.368,167.411,53.737Z" transform="translate(20.024 -30)"/>
    <g id="_群組_" data-name="&lt;群組&gt;" transform="translate(103.282 259.619)">
      <g id="_群組_2" data-name="&lt;群組&gt;">
        <g id="_群組_3" data-name="&lt;群組&gt;">
          <rect id="Rectangle_79" data-name="Rectangle 79" class="cls-3" width="9.214" height="0.454" transform="translate(36.711 0.072) rotate(-0.45)"/>
          <rect id="Rectangle_80" data-name="Rectangle 80" class="cls-3" width="9.214" height="0.454" transform="translate(46.575 82.88) rotate(-0.45)"/>
          <rect id="Rectangle_81" data-name="Rectangle 81" class="cls-3" width="0.454" height="65.119" transform="translate(45.759 0.38) rotate(-45.45)"/>
          <rect id="Rectangle_82" data-name="Rectangle 82" class="cls-3" width="0.454" height="52.095" transform="translate(45.842 9.588) rotate(-45.45)"/>
          <rect id="Rectangle_83" data-name="Rectangle 83" class="cls-3" width="0.454" height="45.576" transform="translate(18.433 37.439) rotate(-45.45)"/>
          <rect id="Rectangle_84" data-name="Rectangle 84" class="cls-3" width="0.454" height="45.576" transform="translate(41.276 14.236) rotate(-45.45)"/>
          <rect id="Rectangle_85" data-name="Rectangle 85" class="cls-3" width="0.454" height="52.095" transform="translate(9.211 37.518) rotate(-45.45)"/>
          <rect id="Rectangle_86" data-name="Rectangle 86" class="cls-3" width="0.454" height="65.119" transform="translate(0.013 37.589) rotate(-45.45)"/>
          <rect id="Rectangle_87" data-name="Rectangle 87" class="cls-3" width="52.095" height="0.454" transform="translate(0 37.265) rotate(-45.45)"/>
          <rect id="Rectangle_88" data-name="Rectangle 88" class="cls-3" width="52.095" height="0.454" transform="translate(55.627 82.87) rotate(-45.45)"/>
          <rect id="Rectangle_89" data-name="Rectangle 89" class="cls-3" width="52.095" height="0.454" transform="translate(9.221 37.183) rotate(-45.45)"/>
          <rect id="Rectangle_90" data-name="Rectangle 90" class="cls-3" width="39.071" height="0.454" transform="translate(18.429 37.114) rotate(-45.45)"/>
          <rect id="Rectangle_91" data-name="Rectangle 91" class="cls-3" width="39.071" height="0.454" transform="translate(46.345 73.73) rotate(-45.45)"/>
          <rect id="Rectangle_92" data-name="Rectangle 92" class="cls-3" width="52.095" height="0.454" transform="translate(46.416 82.942) rotate(-45.45)"/>
          <rect id="Rectangle_93" data-name="Rectangle 93" class="cls-3" width="9.214" height="0.454" transform="translate(9.374 37.115) rotate(-0.45)"/>
          <rect id="Rectangle_94" data-name="Rectangle 94" class="cls-3" width="9.214" height="0.454" transform="translate(73.913 45.823) rotate(-0.45)"/>
        </g>
      </g>
    </g>
  </g>
</svg>
