<svg xmlns="http://www.w3.org/2000/svg" viewBox="5102.936 8653.998 307.702 930.826">
  <defs>
    <style>
      .cls-1 {
        fill: #cbdfdc;
      }

      .cls-2 {
        fill: #231815;
      }

      .cls-3 {
        fill: #648c9c;
      }

      .cls-4 {
        fill: #efefef;
      }

      .cls-5 {
        fill: #dcdddd;
      }

      .cls-6 {
        fill: none;
        stroke: #648c9c;
        stroke-miterlimit: 10;
        stroke-width: 0.75px;
      }
    </style>
  </defs>
  <g id="maingirl_工作區域_1" data-name="maingirl_工作區域 1" transform="translate(5102.936 8653.998)">
    <path id="Path_286" data-name="Path 286" class="cls-1" d="M245.744,280.488c-1.141-8.623-2.31-18.3-6.285-26.13l-.33-.646c-5.5-10-4.923-21.66-4.263-32.676.22-3.7.234-7.413.193-11.126-.069-8.073-.33-16.187.976-24.122,1.279-7.66,3.273-15.128,4.91-22.774,2.269-10.548,3.7-21.33,2.035-32.071-2.242-14.358-8.705-27.7-15.857-40.336-4.043-7.234-8.375-14.261-14.151-20.134-10.3-10.521-24.755-16.5-39.484-17.617a75.323,75.323,0,0,0-23.778,2.228,88.127,88.127,0,0,0-11.332,3.741,39.58,39.58,0,0,0-10.2,5.5,74.125,74.125,0,0,0-7.977,7.426,78.018,78.018,0,0,0-12.487,18.222,79.765,79.765,0,0,0-8.4,38.315c.536,13.629,4.731,26.914,5.872,40.488a36.87,36.87,0,0,1-2.572,7.014,97.271,97.271,0,0,1-11,16.352Q76.546,211.78,62.2,232.024c-6.23,8.829-8.719,19.68-10.548,30.146-.935,5.364-1.692,10.755-2.641,16.118-1.045,5.914-.564,11.566-.853,17.493A55.7,55.7,0,0,0,55.5,323.726c2.971-14.77,17.645-27.148,17.645-27.148s-2.3,32.786,12.144,42.413c0,0-3.892-7.11.468-13.533,2.283,12.845,7.756,18.566,14.069,19.254-4.91-7.784-3.067-11-1.925-15.348,8.252,14.206,14.44,16.957,17.191,16.957,0,0,0,3.438,19.487,0s82.818-6.574,90.575,1.527c1.018,1.458,8.664-3.136,9.352-15.279-.454,14.894-.454,16.269-1.6,17.425,1.884-1.733,3.782-3.452,5.749-5.075,1.073-.894,4.9-4.758,5.4-6.2a48.033,48.033,0,0,0,1.692-6.354,102.251,102.251,0,0,0,1.733-15.857A208.021,208.021,0,0,0,245.744,280.488ZM71.471,234.032l1.5-2.132c7.99-11.456,16.916-22.169,23.875-34.382a108.645,108.645,0,0,0,7.963-15.967C101.41,199.8,84.99,222.191,71.471,234.032Z" transform="translate(-19.417 -21.485)"/>
    <path id="Path_287" data-name="Path 287" class="cls-2" d="M315.313,319.333c-.688-10.658-.949-41.808-5.845-54.543-3.177-8.252-23.723-12.845-33.006-16.283l-1.141-.4c-6.739-13.244-13.326-25.621-15.706-28.138-5.5-5.845-8.939-3.094-16.5-4.47s-19.6-6.189-27.505-9.627-8.252-13.065-8.252-19.6a76.038,76.038,0,0,1,9.283-12.721c4.126-4.47,4.813-15.472,5.5-21.66a9.833,9.833,0,0,0,5.845-3.094c2.407-2.751,3.094-15.472,4.126-20.629s-2.407-11.69-6.533-11.346-4.291,2.242-4.291,2.242-8.43-57.252-43.665-60.512S124.839,71.442,120.2,85.03s-10.314,25.264,5.322,62.574l3.438,5.666s-6.876-3.094-7.22,0,4.47,12.9,8.774,17.535,10.136,10.149,12.034,10.149a4.2,4.2,0,0,0,3.094-1.9s6.189,10.837,14.949,13.409c-1.2,5.68-7.1,13.588-13.065,17.026s-33.35,4.978-37.476,8.939-12.377,20.918-22.692,37.476c-10.6,17.04-42.977,81.484-42.977,81.484s-8.073,11.69-4.291,19.419S62.443,381.4,62.443,381.4s9.283,5.845,11.855,6.7,23.036,9.118,23.036,9.118,9.283,3.259,12.9,4.47a55.2,55.2,0,0,1,10.81,5.5s-15.279,28.881-17.521,42.083-8.6,36.967-8.76,51.916,7.99,119.3,13.134,145.434,8.348,49.51,7.44,58.229S98.365,747.48,99.287,765.813s15.128,71.514,16.957,84.345.468,27.505-.908,38.507-5.5,20.175.908,28.427,11,4.126,13.753,9.173,10.548,19.254,28.427,22,36.211.908,39.883-2.751S178.13,920.3,169.425,910.669s-22.926-27.505-25.209-34.835,1.375-70.592,2.5-82.97,9.407-58.682,12.625-68.763,10.081-72.889,10.535-88.484,2.3-117.8,5.5-119.18c5.969-1.843,11.924-2.3,11.924,4.58,0,9.627,18.332,145.118,20.175,157.371s7.784,37.916,15.582,49.84,18.8,48.134,23.379,64.637S259.271,874,256.52,880.413s-28.949,33.928-36.252,40.35-21.385,12.941-22,16.957,0,12.735,10.081,11.869,25.676,1.9,32.552,0,20.629-11.47,25.676-17.878,8.705-5.5,12.377-5.969,14.66-6.876,12.377-21.537-5.969-27.505-7.344-40.35,3.218-69.217,4.126-79.3.468-35.3-10.535-55.932-13.3-25.209-13.753-35.757,8.252-107.724,7.784-131.1-5.955-82.516-11-98.111-31.631-78.39-33.006-86.642-3.2-37.132.468-46.291,12.254-40.006,12.6-44.132l6.876-.688,25.442,49.853s13.753,36.444,28.193,45.384c9.283-2.063,10.314-10.314,14.1-17.191S316,329.992,315.313,319.333ZM107.139,371.249c-3.782-.344-6.367-8.073-2.751-8.073s4.978-2.063,6.7-2.063S121.057,363,122.955,363c3.438-.344,1.375-6.354-.344-7.041a81.95,81.95,0,0,0-16.5-2.242c-3.782.179-10.314-.688-14.1.688s-18.91,7.055-18.91,7.055a112.426,112.426,0,0,1-3.273-15.307c3.617-6.876,53.291-73.4,53.291-73.4.179,8.76-7.88,22.857,7.069,41.946,4.263,3.342,8.953,34.712,5.116,58.311-.523-.193-1.086-.385-1.692-.55C127.424,370.741,110.921,371.593,107.139,371.249Zm26.543,9.311a49.509,49.509,0,0,1-2.008,5.955c-8.664-2.751-16.806-5.982-16.806-5.982a131.405,131.405,0,0,1,18.814.028Zm159.627-83.685-6.794-12.529h7.371Z" transform="translate(-22.822 -19.443)"/>
    <path id="Path_288" data-name="Path 288" class="cls-1" d="M116.133,119.169c3.3,6.024,14.385,9.723,17.273,8.994,2.09-.839,6.2-2.434,7.206-4.456-5.817-1.98-9.806-10.837-12.02-16.5l.715,1.788c3.521,6.464,11.442,9.943,18,13.3,2.489-2.751,6.367-3.741,10.026-4.3s12.377-2.641,12.8-2.585c3.493.523-1.375-16.228-1.375-16.228a115.77,115.77,0,0,0,9.338,15.6,12.24,12.24,0,0,0,4.552,1.114c1.059-1-.3-8.155-1.8-15.664a30.146,30.146,0,0,1,5.969,9.283c1.678,4.841,3.493,9.09,3.493,9.09,3.479.825,12.254,6.876,12.254,6.876C198.223,91.237,188.5,71.035,175.7,63.814c-4.016-2.269-20.546-13.161-43.142-5.666s-26.13,14.083-32.5,21.825c-23.943,29.348,9.283,74.264,9.283,74.264,8.774-4.745,13.478-12.006,18.085-20.849a8.6,8.6,0,0,1-4.208-4.016" transform="translate(-3.197 -20.411)"/>
    <path id="Path_289" data-name="Path 289" class="cls-3" d="M97.932,172.853a5.831,5.831,0,0,0-2.64,1.086,6.161,6.161,0,0,0-1.472,2.6A115.743,115.743,0,0,1,82.336,199.52C79.71,203.577,76.7,208,77.413,212.777l-9.173,3.067A52.068,52.068,0,0,0,104,248.4a24.837,24.837,0,0,1,1.155-8.334,54.8,54.8,0,0,0,22.417-22.816c4.126-7.99,6.23-16.861,7.963-25.676,1.1-5.6,1.9-11.965-1.568-16.5C127.4,166.554,106.569,170.969,97.932,172.853Z" transform="translate(-11.882 22.544)"/>
    <path id="Path_290" data-name="Path 290" class="cls-3" d="M204.367,170.584a10.259,10.259,0,0,1,3.356.468,9.875,9.875,0,0,1,3.191,2.242,68.475,68.475,0,0,1,16.077,23.269c.784,1.87,2.751,11.36,4.648,17.26,3.782,2.393,7.371,11,10.3,14.385-6.491,3.631-18.263,9.1-23.627,14.261-1.857,1.774-4.676,1.637-6.959,2.833-5.941,3.108-12.171,2.751-18.827,3.493-1.21-2.063-.674-2.751.605-4.772,1.967-3.067.811-4.428-1.884-6.876s-4.566-7.977-7.4-10.259C180.3,224,178,219.9,175.8,215.885c-3.727-6.794-7.55-13.849-8.073-21.578a53.636,53.636,0,0,1,.523-9.723l1.114-9.709a5.5,5.5,0,0,1,.564-2.09C174.909,163.914,196.487,170.364,204.367,170.584Z" transform="translate(25.439 21.829)"/>
    <path id="Path_291" data-name="Path 291" class="cls-3" d="M334.961,554.037c-6.312-30.008-23.118-56.743-32.181-86.036-4.483-14.468-50.733-105.785-59.4-123.265-3.617-7.3-7.11-19.611-8.664-27.615a63.936,63.936,0,0,1,0-21.592,107.119,107.119,0,0,1,6.106-22.678c2.145-5.5,4.772-10.92,6.092-16.7,2.6-11.373,0-23.256-3.438-34.382-4.978-16.283-11.759-32.25-22.266-45.645,0,0-47.873-10.507-64.94-2.063s-25.552,54.46-25.552,54.46c-8.183,9.517-8.252,23.641-5.253,35.757s8.815,23.572,11.14,35.908c4.456,23.778-4.277,47.832-12.872,70.455-4.69,12.377-32,57.142-38.425,68.5-6.876,12.13-14.069,24.053-20.959,36.169C49.443,501.5,34.645,529.1,28.47,558.906c-.468,2.2-.866,4.428-1.21,6.656,8.705,5.8,19.529,7.261,29.953,8.32q24.04,2.407,48.217,3.039c19.144.481,38.507.1,57.156-4.3,9.627-2.269,18.951-5.6,28.564-7.825,29.321-6.808,59.92-3.3,89.818.083C297.9,566.772,334.961,554.037,334.961,554.037Z" transform="translate(-27.26 22.83)"/>
    <path id="Path_292" data-name="Path 292" class="cls-4" d="M139.474,177.357a100.394,100.394,0,0,0-5.391,11.332,4.456,4.456,0,0,0-.261,3.919,3.988,3.988,0,0,0,1.375,1.2,25.344,25.344,0,0,0,2.751,1.375c.949.468,5.762-5.941,5.872-9.242,0-.8,1.114-11.387,1.224-13.519C145.277,167.056,140.161,176.105,139.474,177.357Zm-.688,14.5a6.436,6.436,0,0,0-.715,1.912,8.761,8.761,0,0,1,.426-6.395,31.011,31.011,0,0,1,2.751-4.566A25.208,25.208,0,0,1,138.786,191.852Z" transform="translate(12.603 22.813)"/>
    <path id="Path_293" data-name="Path 293" class="cls-4" d="M143.309,227.592c-5.5-7.743-7.138-17.755-6.257-27.216a58.875,58.875,0,0,1,5.4-19.708c.578-.275.564.344.743.949a3.548,3.548,0,0,1-.193,1.884,55.478,55.478,0,0,0,3.053,38.287C144.12,223.494,143.8,225.062,143.309,227.592Z" transform="translate(13.856 26.515)"/>
    <path id="Path_294" data-name="Path 294" class="cls-4" d="M148.288,216.412a12.557,12.557,0,0,1,5.281,3.562c.5-6.56-7.688-39.965-12.02-37.971-1.375.66.44,5.652.7,6.56,1.073,3.809,2.379,7.564,3.562,11.346a43.074,43.074,0,0,1,1.912,9.476c.11,1.485.248,2.971.371,4.47a13.534,13.534,0,0,0,.193,2.558Z" transform="translate(15.437 27.009)"/>
    <path id="Path_295" data-name="Path 295" class="cls-4" d="M156.2,188.9a31.853,31.853,0,0,0-2.42-8.719c-.839-1.843-9.173-14.619-11.538-9.132a2.049,2.049,0,0,0,0,1.293c-2.269,1.375-2.022,7.289-1.994,9.132.083,5.075.605,10.521,3.479,14.715,2.393,3.507,9.517.234,10.232-1.1C155.044,192.89,156.584,191.4,156.2,188.9Zm-5.364,6.876c-1.375-.605-4.195-.206-6.3-19.35.646.866,1.251,1.637,1.568,2.159a47.955,47.955,0,0,1,4.456,9.132c1.238,3.589,1.265,4.4.275,8.1Z" transform="translate(15.131 22.421)"/>
    <path id="Path_296" data-name="Path 296" class="cls-4" d="M117.211,171.89c7.426,11.9,7.619,27.189,5.79,41.093s-6.656,27.835-5.5,41.808c1.485,18.415,11,35.441,12.749,53.828a90.863,90.863,0,0,1-5.254,41.478C103.1,406.084,66.849,452.059,41.75,505.185a354.5,354.5,0,0,0,155.006,1.953c19.02-4.03,37.82-9.627,57.2-11.263s42.812,2.118,58.614,13.478c3.246,1.788-4.978-15.554-5.927-18.69-9.421-31.219-60.993-131.571-66.013-141.872-7.523-15.43-13.436-32.1-11.525-50.513,1.76-17.108,10.768-30.613,13.533-47.6,4.208-25.91-4.126-55.162-.3-81.141-6.491-1.306-10.878-2.338-19.4-1.375L207.8,206.67c-1.21,3.067-2.489,6.257-4.882,8.527-3.507,3.342-8.692,4.126-13.519,4.662-11.841,1.375-26.13,1.76-33.006-8.032-3.232-4.648-3.864-10.548-5.24-16.036-1.925-7.633-5.267-17.988-11.717-22.5C135.282,170.4,129.877,170.033,117.211,171.89Z" transform="translate(-21.822 21.706)"/>
    <path id="Path_297" data-name="Path 297" class="cls-4" d="M123.46,293.5a1.77,1.77,0,0,0,.151.605C123.556,293.913,123.515,293.706,123.46,293.5Z" transform="translate(8.84 68.882)"/>
    <path id="Path_298" data-name="Path 298" class="cls-4" d="M204.512,275.467c-4.126.591-8.334,1.128-12.515,1.65-9.09,1.128-18.208,2.118-27.354,2.888a197.888,197.888,0,0,1-29.939.729,121.7,121.7,0,0,1-14.8-1.774A100.7,100.7,0,0,1,106.8,275.44v8.76a7.234,7.234,0,0,1,1.884-4,2.97,2.97,0,0,1,1.183-.825c1.293-.4,2.585.77,3.094,2.035a39.884,39.884,0,0,0,1.2,3.892,2.888,2.888,0,0,1,4.415-3.328,5.157,5.157,0,0,1,1.678,3.589l.468-2.365a.523.523,0,0,1,.193-.371.44.44,0,0,1,.371,0,4.7,4.7,0,0,1,2.42,1.554,18.841,18.841,0,0,1,4,7.536c.825,2.75,1.375,5.584,2.022,8.375a56.992,56.992,0,0,1-.743-12.047,7.811,7.811,0,0,1,.715-3.424,2.888,2.888,0,0,1,2.9-1.6c1.472.3,2.173,1.953,2.6,3.4-.179-.605,2.861-2.847,3.328-3.2a3.149,3.149,0,0,1,3.534-.481c1.939.784,5.185,1.829,6.134,3.919a3.452,3.452,0,0,1,4.58-2.5c.4-1.554,2.627-1.98,3.988-1.128a7.207,7.207,0,0,1,2.572,3.988,59.907,59.907,0,0,1,2.035,7.385c0-1.843-.4-3.672-.371-5.5a6.464,6.464,0,0,1,1.953-4.965,3.356,3.356,0,0,1,4.841.481c.55-1.279,1.375-2.751,2.751-2.751a2.957,2.957,0,0,1,2.42,1.623,20.919,20.919,0,0,0,1.527,2.641c-.825-1.678,1.128-3.631,2.984-3.507a6.876,6.876,0,0,1,4.483,3.026,26.694,26.694,0,0,1,4.593,9.022l-1.857-6.711a11,11,0,0,1-.605-4.043,3.823,3.823,0,0,1,2.118-3.273,2.365,2.365,0,0,1,3.2,1.554c.729-1.6,1.9-3.452,3.631-3.273,1.265.124,2.118,1.375,2.751,2.407l5.1,8.142a39.391,39.391,0,0,1-1.87-6.876,4.373,4.373,0,0,1,.248-3.108,2.888,2.888,0,0,1,3.3-1.059,4.772,4.772,0,0,1,2.668,2.462Z" transform="translate(2.588 62.105)"/>
    <path id="Path_299" data-name="Path 299" class="cls-4" d="M145.169,171.29s-1.609,6.876-4.126,9.173-5.735,3.672-7.729,3.136S140.864,169.859,145.169,171.29Z" transform="translate(12.437 22.98)"/>
    <path id="Path_300" data-name="Path 300" class="cls-4" d="M141.38,171.5s5.075,13.89,13.973,13.038S145.093,169.109,141.38,171.5Z" transform="translate(15.565 23.001)"/>
    <path id="Path_301" data-name="Path 301" class="cls-4" d="M185.885,163.181a5.157,5.157,0,0,0-1.815-.66,5.034,5.034,0,0,0-1.733.248c-4.58,1.141-23.875,16.3-56.014,3.864-6.354-2.462-14.757,4.978-18,5.735,1.073,4.043,5.2,5.088,8.554,7.591a41.175,41.175,0,0,0,11.222,5.5c5.13,1.76,10.741,3.108,15.926,1.527a6.01,6.01,0,0,0,2.544-1.375c1.568-1.554,7.922-10.878,7.523-11.153.908.619,6.381,6.684,9.1,9.7a12.584,12.584,0,0,0,3.947,3.191,12.983,12.983,0,0,0,5.914.688,35.043,35.043,0,0,0,6.56-.784c8.155-1.939,14.33-8.4,20.01-14.564.44-.468,3.369-1.967,3.191-2.585S190.4,165.478,185.885,163.181Z" transform="translate(3.159 19.729)"/>
    <path id="Path_302" data-name="Path 302" class="cls-1" d="M98.86,144.15a93.518,93.518,0,0,1,11.332,38.425c.358,5.033.3,10.094,1.086,15.128,1.375,8.513,5.1,16.5,9.379,23.957,4,7.014,8.623,13.9,15.128,18.8,2.971,2.269,9.2,5.281,17.617.99.646-.33,2.929-2.668,2.352-3.589,0,0-9.256,9.627-19.5-5.735,0,0,9.462,3.851,9.627,2.008-4.731-.688-8.169-7.77-10.466-11.951-7.523-13.753-3.768-30.861-8.073-45.906a44.119,44.119,0,0,0-11.181-18.951" transform="translate(-0.391 12.836)"/>
    <rect id="Rectangle_95" data-name="Rectangle 95" class="cls-4" width="169.804" height="147.057" transform="translate(80.453 229.848)"/>
    <rect id="Rectangle_96" data-name="Rectangle 96" class="cls-5" width="169.804" height="142.862" transform="translate(80.453 229.848)"/>
    <path id="Path_303" data-name="Path 303" class="cls-2" d="M95.428,285.661c1.609.248,5.377.344,5.377.344,7.44,0,20.629.8,25.167,2.2s4.126,5.955,3.823,7.908c-2.3-1.031-26.818-1.265-26.818-1.265s21.77,7,26.928,10.2,4.813,6.533,3.562,9.393c-3.218-2.861-16.283-6.189-16.283-6.189,14.674,6.422,11.69,13.189,10.094,16.393-1.719-2.407-5.157-4.923-13.024-9.393,7.151,6.3,6.711,11.566,3.961,12.831-2.063-2.984-7.922-6.216-7.922-6.216a50.059,50.059,0,0,0-13.643-6.491c-4.126-1.375-23.71-8.98-23.71-8.98L67.73,304.35S83.628,283.859,95.428,285.661Z" transform="translate(-12.073 65.898)"/>
    <path id="Path_304" data-name="Path 304" class="cls-2" d="M231.469,201.448S202.9,198.2,176.554,187.31c-1.719,2.641,1.128,7.083,2.847,8.114s23.586,8.623,23.586,8.623-31.521.8-32.663.8c-1.5,2.751,3.438,6.189,8.362,6.533s31.177,2.751,31.177,2.751.688,1.5-.811,1.5-27.505,2.407-29.678,2.407c-2.063,1.6.234,4.58,2.517,5.157s29.8,1.6,29.8,1.6,1.141,1.155.234,1.375-20.821,6.533-22.692,7.481c-.124,2.641,1.568,4.648,3.438,4.47s15.238-2.751,17.645-2.751,18.676.4,22.348.536,4.126,1.8,12.034,0C244.74,235.871,243.887,202.52,231.469,201.448Z" transform="translate(26.324 29.033)"/>
    <path id="Path_305" data-name="Path 305" class="cls-6" d="M97.4,208.5l-5.474-.468-5.474-.481,5.212-5.006,5.212-5.02.261,5.487Z" transform="translate(-5.048 32.868)"/>
    <path id="Path_306" data-name="Path 306" class="cls-6" d="M85.76,207.953l.316,12.941L109.5,197.474l-12.4-.344" transform="translate(-5.307 32.718)"/>
    <path id="Path_307" data-name="Path 307" class="cls-6" d="M215.348,296.836l-.179-13.106L203.6,295.241,192.45,307.164l12.254.344-.811-11.9Z" transform="translate(34.73 65.216)"/>
    <line id="Line_4" data-name="Line 4" class="cls-6" y1="10.782" x2="10.452" transform="translate(239.805 362.148)"/>
    <path id="Path_308" data-name="Path 308" class="cls-3" d="M100.153,137.644s-34.12-40.1,16.036-75.571c18.263-9.407,59.521-22.472,76.355,21.908,0,0-11.291-20.918-34.217-25.057a54.557,54.557,0,0,0-43.321,10.314c-4.126,3.438-12.529,9.957-19.02,27.271S100.153,137.644,100.153,137.644Z" transform="translate(-4.16 -21.475)"/>
    <path id="Path_309" data-name="Path 309" class="cls-3" d="M108,64.352l-3.576-.275a.743.743,0,0,1-.55-.193.729.729,0,0,1,0-.536,13.629,13.629,0,0,1,2.42-5.226,1.719,1.719,0,0,1,.523-.605,1.65,1.65,0,0,1,.811-.165,11.538,11.538,0,0,1,6.876,1.994,30.023,30.023,0,0,0-3.534,3.7c-1.224,1.2-3.094,2.09-4.635,1.375" transform="translate(1.471 -19.738)"/>
    <path id="Path_310" data-name="Path 310" class="cls-3" d="M94.9,59.556c-8.155,2.132-16.256,5.364-24.672,4.951,3.136,4.9,9.1,7.069,14.674,8.747a25.512,25.512,0,0,0,6.065,1.293,26.625,26.625,0,0,0,9.737-2.008l14.261-4.868a10.754,10.754,0,0,0,4.263-2.187c4.8-4.676-4.882-6.876-8.252-7.33A40.02,40.02,0,0,0,94.9,59.556Z" transform="translate(-11.135 -19.536)"/>
    <path id="Path_311" data-name="Path 311" class="cls-3" d="M116.82,53.737a54.612,54.612,0,0,0,6.037-12.886L126.831,30a58.778,58.778,0,0,1,3.892,13.753,22.568,22.568,0,0,1-2.269,13.753,24.631,24.631,0,0,1-5.364,6.271c-2.448,2.132-11.085,9.888-13.478,4.566S114.275,57.368,116.82,53.737Z" transform="translate(3.461 -30)"/>
    <g id="_群組_" data-name="&lt;群組&gt;" transform="translate(142.518 263.789)">
      <g id="_群組_2" data-name="&lt;群組&gt;" transform="translate(11.717 10.094)">
        <path id="Path_312" data-name="Path 312" class="cls-3" d="M191.753,259.777l-51.861-29.884.206,50.527-.5.014-.193-50.995.165-.289L192,259.365Z" transform="translate(-139.41 -229.15)"/>
      </g>
      <g id="_群組_3" data-name="&lt;群組&gt;" transform="translate(5.584 0.22)">
        <path id="Path_313" data-name="Path 313" class="cls-3" d="M179.907,261.041,135.115,287.13l-.165-65.16h.481l.179,64.321,44.063-25.676Z" transform="translate(-134.95 -221.97)"/>
      </g>
      <g id="_群組_4" data-name="&lt;群組&gt;">
        <path id="Path_314" data-name="Path 314" class="cls-3" d="M195.28,262.49l-58.339,33.983-5.5-1.485-.275.151L130.89,225.3l6-3.493.11.069,60.264,34.574Zm-58.407,33.46,57.995-33.79,1.8-5.5-59.838-34.244-5.5,3.2.275,68.763,53.25-31.053-42.1-24.081.234-.426,42.839,24.507-53.855,31.384Z" transform="translate(-130.89 -221.81)"/>
      </g>
    </g>
  </g>
</svg>
