<svg xmlns="http://www.w3.org/2000/svg" viewBox="4421.505 3659.543 744.438 648.997">
  <defs>
    <style>
      .cls-1, .cls-13 {
        fill: #231815;
      }

      .cls-1 {
        stroke: #fff;
      }

      .cls-1, .cls-11, .cls-4, .cls-8 {
        stroke-miterlimit: 10;
      }

      .cls-2 {
        fill: #cbdfdc;
      }

      .cls-3, .cls-4 {
        fill: #648c9c;
      }

      .cls-4 {
        stroke: #4f6f7a;
      }

      .cls-5 {
        fill: #898989;
      }

      .cls-6 {
        fill: #c9caca;
      }

      .cls-7, .cls-8 {
        fill: #f7f8f8;
      }

      .cls-11, .cls-8 {
        stroke: #dcdddd;
      }

      .cls-9 {
        fill: #93b9d6;
      }

      .cls-10 {
        fill: #efefef;
      }

      .cls-11 {
        fill: none;
        stroke-linecap: round;
      }

      .cls-12 {
        fill: #310304;
      }
    </style>
  </defs>
  <g id="alice-asleep_工作區域_1" data-name="alice-asleep_工作區域 1" transform="translate(4403.242 3650.4)">
    <path id="Path_215" data-name="Path 215" class="cls-1" d="M664.19,36s-22.5.25-39,16.25-26.08,35.25-28.91,54.59c-2.67,15.16-4.5,21.83-7.17,25.5s-4,7.16-9.17,9.66c0,0-4,1.34-3.66,3,1,3.5,2.16,4.17,2.83,8.34s-.33,5.83-.33,5.83l.66,1.33,2,.84-.33,3.33.83,1.5s2-.67,2.5,1.83c.34,5-2.66,4.67,1.5,9s15.34,8.67,24.5,10.34,17,2.5,17,2.5,2.17,9.83,1.67,17.5-6.44,15-8.88,17.5-7.45,2.16-7.62,5.83-.5,10-3,15.17-6,13-13.67,18.5c-6.77,4.86-13.41,10.17-18.87,16.51-12.65,14.72-8.9,34.33,0,49.65.67,7.17-3.83,45.17-5.67,55.5s-3.58,36.84-6.75,40-28.89,19.51-32.22,22.68-52,23.49-55,25.16c-6.83,1.83-31.5,10.58-35.5,12.91s-9.16,3.42-11,4.75-6,4.09-7,4.92a23.109,23.109,0,0,1-6.16,4.08c-4.34,1.17-115.67,49.84-147.34,56.5-31.66,7.34-66,13-110.33,20.34s-36.33,5.33-40,5.33c-8.33-6.33-42.67-48.33-49.33-59C60.78,514,50.44,510,45.44,513s-11-.66-14,3.34-9.66,7.33-7.66,12.66,5.66,17.67,3.66,26.67-3.66,14.67-1,24.67,2,19.66-1.66,31.33-10.74,30-1.37,39.67,21,9.66,47.37-10c14-2,74.33-2,91-1.67,31.26.62,63.51,4.28,94.48-1.5,30.54-5.71,59.34-18,89.56-24.94,1.43-.33,2.85-.68,4.29-.89,16.67-1,131.67-5,145.33-5.34s90.34-1,100.34-2.66,36.66-7,52.66-17.67,27-22.33,29-40-1.33-39-8-51.67-10.33-77.33-7.33-90,19.67-60.33,25-73.66,15-57.67,16.67-65,5.66-20.34,2.33-28.67-11.67-24.33-13.67-33.33-3-25.34-3-25.34c7.34-2.33,35-10,49.34-36s13-63,1.33-77S709.61,31,664.19,36Z"/>
    <path id="Path_216" data-name="Path 216" class="cls-2" d="M625.1,182c1.43-5,16-15.91,7.47-38.25-1.34-3.49-5.69-10.92-8.26-13.59q-4.32-4.5-8.75-8.87c-3.83-3.77-7.78-7.56-10.37-12.27l-.17-.32c-2.84-5.34-3.72-11.45-3.74-17.43,0-3-2.59-19.85,14.28-38.5,3.76-4.16,8.58-7.24,13.45-10a112.141,112.141,0,0,1,26.22-10.38,82.39,82.39,0,0,1,52.47,3.22A80.5,80.5,0,0,1,740.48,60.4a87.232,87.232,0,0,1,10.63,17.29,75.725,75.725,0,0,1,3.67,9.52c4.34,14,7.92,27.35,7.92,42.23A146.06,146.06,0,0,1,756.31,171c-14.2,47.67-30.87,93.34-35.2,136.67s-15.67,57.08-24.42,65.58c-16,15.56-31,10.59-31,10.59s8.09-9.25,4.25-23.34c-8.07-29.66-47.66-60.06-44.13-74.79.22-.94,1.1-1.58,1.5-2.46,3.38-7.39,1.91-16.08-.76-23.75s-6.48-15-7.76-23.05c-1.6-10,.93-20.33,4.86-29.71s9.25-18.1,13.59-27.29c2.81-5.93,4.28-15.57,1.2-9.07C635.19,177.25,625.17,181.73,625.1,182Z"/>
    <path id="Path_217" data-name="Path 217" class="cls-3" d="M648.78,35.25S690.44,121,660.44,160.67c10.34-10,20.34-34,24.34-71.33s-18-59.79-18-59.79S653.44,30.16,648.78,35.25Z"/>
    <path id="Path_218" data-name="Path 218" class="cls-4" d="M686.87,74.43c-2.37-3-4.6-6.13-7.47-8.64A21.591,21.591,0,0,0,673,61.9l1-2.9a4.329,4.329,0,0,0,.33-2.26c-.27-1.23-1.5-2-2.64-2.49-.94-.44-2-1-3.06-1.41,3.56-2.56,6.92-6.07,10.14-8.71,2.87-2.37,5.8-4.8,7.78-8a28.341,28.341,0,0,0,3.24-8.53,80.411,80.411,0,0,0,2.23-17,120.466,120.466,0,0,1-15.39,15.82c-3.87,3.35-8.63,6.58-10.27,11.7v.1c-1.46,4.69-3.1,10.78-1.24,15.59a17.73,17.73,0,0,0,1.28,6.25,9.3,9.3,0,0,0,2.6,3.61c-.36,2.77,1.77,7.64,2.33,9.56a143.815,143.815,0,0,0,9.91,25,20.888,20.888,0,0,0,4.7,6.67c2.55,2.15,5.9,3,9.13,3.88l21.75,5.59C711.06,98.65,697.27,87.55,686.87,74.43Z"/>
    <path id="Path_219" data-name="Path 219" class="cls-5" d="M25.09,572.76a24.48,24.48,0,0,1,.56-9.18,79.749,79.749,0,0,1,2.73-8.83,96.379,96.379,0,0,1,7.55-16.85c.78-1.33,1.53-2.67,2.41-3.95a11.129,11.129,0,0,1,3.39-3.16,9.45,9.45,0,0,1,9-.59,6.51,6.51,0,0,0,4.42,0c1.47-.4,2.89-1,4.35-1.52.73-.25,1.47-.48,2.23-.67a8.506,8.506,0,0,1,1.16-.21,2.87,2.87,0,0,1,1.2.17,11.732,11.732,0,0,1,3.84,2.63,35,35,0,0,1,5.69,7.3,30.778,30.778,0,0,1,3.61,8.54,15.419,15.419,0,0,1,.39,4.65,9.271,9.271,0,0,1-.17,1.16l-.15,1.13a17.229,17.229,0,0,0-.16,2.28,85.852,85.852,0,0,0,.36,9.2c.52,6.12,1.29,12.23,2.15,18.32s1.82,12.18,2.87,18.24v-.1a18.259,18.259,0,0,0,7.63,5.75,27.112,27.112,0,0,0,9.46,2c6.54.47,12.89-1.69,19.37-2.71l38.7-7.33L235,584.38,273.67,577c6.44-1.25,12.92-2.44,19.32-3.75,1.6-.33,3.15-.82,4.74-1.26l4.73-1.36,9.44-2.77,75.53-22.41v.1q-37.62,11.7-75.34,23.05l-9.43,2.83L298,572.82c-1.58.45-3.16,1-4.77,1.3-6.46,1.36-12.89,2.6-19.34,3.86l-38.69,7.37-77.43,14.53L119,607.11c-3.23.62-6.44,1.16-9.66,1.9a20,20,0,0,1-2.44.39c-.82.1-1.64.24-2.46.31a41.216,41.216,0,0,1-5,.07,27.492,27.492,0,0,1-9.66-2.13,18.741,18.741,0,0,1-7.88-6h0v-.07q-1.56-9.1-2.83-18.26c-.84-6.1-1.6-12.22-2.1-18.37a83.853,83.853,0,0,1-.33-9.25,15.21,15.21,0,0,1,.18-2.32l.15-1.16a10.411,10.411,0,0,0,.16-1.12,14.6,14.6,0,0,0-.36-4.51,30.72,30.72,0,0,0-3.53-8.43,35.551,35.551,0,0,0-5.6-7.25,11.539,11.539,0,0,0-3.71-2.56,2.66,2.66,0,0,0-1.07-.16,6.5,6.5,0,0,0-1.11.2c-.74.18-1.47.41-2.19.66-1.45.5-2.87,1.1-4.38,1.51a6.73,6.73,0,0,1-4.62-.07,9.18,9.18,0,0,0-8.71.56,10.84,10.84,0,0,0-3.32,3.08c-.87,1.25-1.64,2.6-2.42,3.92a95.679,95.679,0,0,0-7.58,16.79,79.41,79.41,0,0,0-2.76,8.8,24.28,24.28,0,0,0-.59,9.14Z"/>
    <path id="Path_220" data-name="Path 220" class="cls-6" d="M645.61,232s-33,25.52-47.08,30.26a50.26,50.26,0,0,0-30,28.38,46.9,46.9,0,0,0-3,21.17c.84,8,5.64,15.07,8,22.61-2.5,19.5-7.78,87.92-16.78,101.92s-10.47,24.87-16.84,28.09a168.207,168.207,0,0,1-40.15,14.69c-21.84,4.67-52.35,4.88-94,22.55-22.7,9.62-35.74,19.15-59,27.33,24.66,11.07,32.37,23.15,51.51,42.24,18.64,18.6,38.42,39.42,64.52,42.89,7.88,1.06,15.88.41,23.81-.24L558.77,608c16.57-1.35,33.2-2.71,49.44-6.28a185.11,185.11,0,0,0,37-12.34c7.8-3.56,15.47-7.75,21.5-13.85,12.91-13,16.36-32.93,15-51.24s-7-36-9.39-54.23c-2.84-21.31-8.62-40.33-5.29-61.57,3.1-19.72,8-43.51,14.13-62.05C681.07,346.45,692.94,230,645.61,232Z"/>
    <path id="Path_221" data-name="Path 221" class="cls-3" d="M672.51,472c6.93,38.15,15.93,81.29,8.62,113.14-5.68,24.74-19.74,50.19-43.87,58.09-18.51,6.05-38.51.51-57.82-2-34.53-4.47-69.85,1-104.25-4.33-17.08-2.65-33.64-7.93-49.92-13.74-11.33-4.05-22.67-8.41-32.78-14.93-26.2-16.89-41.32-46.08-55.28-73.95-1.54-3.07-3-6.89-1.12-9.73a9.24,9.24,0,0,1,4.44-3c9.83-4,20.67-4.63,30.67-8.12,63-22,118.39-37,170.36-70.45C541.56,443,664.56,428.22,672.51,472Z"/>
    <path id="Path_222" data-name="Path 222" class="cls-7" d="M668.6,447.84S683.51,585,647,608s-80-11.5-127.54-18.5-88.4-78.68-143.7-77.59c22.31-7.6,130.2-46.45,130.2-46.45,19-6.46,50.17-4.59,56.57-46.65s8.33-59.32,7.27-79.81c-.42-7.95-4.9-23.3-4.37-33.17.55-10.39,5.78-30.91,23.78-39.91s94.91,40.63,95.94,54.63S677.7,358,674.06,373.4,665.92,410,666,418.5,668.6,447.84,668.6,447.84Z"/>
    <path id="Path_223" data-name="Path 223" class="cls-8" d="M672.35,443.39a6.71,6.71,0,0,1-1.32,4c-2.84,4.5-.3,2.32-2.84,2.63-.9.11-1.74.76-2.62.58a2.73,2.73,0,0,1-1.38-.95,34.129,34.129,0,0,1-3.24-4,10.58,10.58,0,0,1-1.73-3.35c-.85-3.27,1.21-6.81,4.18-8.43,1.94-1.06,5.71-2.43,6-.25C669.88,437.69,672.32,440.2,672.35,443.39Z"/>
    <path id="Path_224" data-name="Path 224" class="cls-7" d="M668,453.38a138.738,138.738,0,0,1,5.8,30.22c1.08,13.72.15,27.54.44,41.32a39.481,39.481,0,0,0,1.43,11.29,8.18,8.18,0,0,1,8.15-.18,16.38,16.38,0,0,1,6.26,6.29q-3.79-22.82-7.35-45.69c-2.62-16.89-5.45-34.63-15-47.95a29.922,29.922,0,0,0,.58,8.81"/>
    <path id="Path_225" data-name="Path 225" class="cls-8" d="M670.34,455.16c-.83-3.41-2.25-11.88-5.09-14.16-.59-.48-1-.65-1.31-.61.18-1.81.1-3.77-1.74-3.55-1.43.17-3.79,3.72-4.65,4.8-5.66,7.15-8.45,16.24-9.8,25.14a47.711,47.711,0,0,0-.32,14.89c.49,3,1.51,6.07,3.81,8.05a14.339,14.339,0,0,0,5.71,2.66,56,56,0,0,0,7.11,1.45,2.68,2.68,0,0,0,1.88.69,2.87,2.87,0,0,0,1.7-1.1c2.07-2.33,2.92-5.49,3.5-8.56a70.649,70.649,0,0,0-.8-29.7ZM660.89,458c.71-4.89,2.07-9.68,2.69-14.58a54.152,54.152,0,0,0,1.66,6c1.28,4.2.74,8.79-.65,13a57.61,57.61,0,0,1-4.07,9,56.532,56.532,0,0,1,.37-13.42Z"/>
    <path id="Path_226" data-name="Path 226" class="cls-9" d="M354.56,537.7l7.88-31.37L418.78,488l38.75,28.51L355.9,558.77Z"/>
    <path id="Path_227" data-name="Path 227" class="cls-10" d="M457.53,516.51c-26.29,12.58-74.38,31.88-101.63,42.26-1.24-6.91-1-14-1.34-21.07,23-9.93,61.6-26.35,85.64-33.33Z"/>
    <path id="Path_228" data-name="Path 228" class="cls-11" d="M358.37,539.62c10.79-3.78,20.9-9.25,31.5-13.54,16.43-6.66,33.9-10.44,50.37-17"/>
    <path id="Path_229" data-name="Path 229" class="cls-11" d="M357.83,542.45c22.15-11.29,46.68-18.9,70.71-25.28,5.37-1.43,10.4-4.15,15.44-6.5"/>
    <path id="Path_230" data-name="Path 230" class="cls-11" d="M358.52,545.7c8.63-5.56,18.55-8.74,28.33-11.85l35.48-11.31c6.84-2.18,24-8.79,22.07-7.76"/>
    <path id="Path_231" data-name="Path 231" class="cls-11" d="M369.48,542.41a33.32,33.32,0,0,0,6.33-2.36c17-7.43,35.54-10.44,52.73-17.32"/>
    <path id="Path_232" data-name="Path 232" class="cls-11" d="M440.24,519.5a116.994,116.994,0,0,1-14,6.71c-20.39,7.88-39.84,11.67-61.59,22.55"/>
    <path id="Path_233" data-name="Path 233" class="cls-11" d="M362.06,553.24a290.009,290.009,0,0,1,34-14.13c3.56-1.22,7.14-2.37,10.7-3.58,13.89-4.73,27.44-10.41,41-16.09.2-.08.44-.22.44-.44s-.46-.2-.36,0"/>
    <path id="Path_234" data-name="Path 234" class="cls-12" d="M658.78,159.17A25.13,25.13,0,0,1,668,159c6.17.93,9.87,6,10.48,12s-5.55,9.79-10.21,12.34c0,0-5.87,3.95-18.09,3.54C649.94,181.75,645.49,162.46,658.78,159.17Z"/>
    <path id="Path_235" data-name="Path 235" class="cls-2" d="M663.16,156.63c-12.54-.62-30.5,32.18-37.66,46-9.17,17.63-24.91,25.1-31.68,39.08a69,69,0,0,0-5.64,18.8,72.637,72.637,0,0,0-1.06,16,56.141,56.141,0,0,0,10.41,29.47c3.11,4.33,6.84,8.21,9.76,12.67s5,9.76,4.34,15c-1.08,8.28-10.34,16-16.19,15.6-1.41-.09-5.87-1.56-6.34-1.54-2.07.09,10,7.85,19.68,1.9s19.17-39.17,28.33-55.27c21.66-38.1,14.28-72.68,23.18-98.28C664.33,184.43,663.16,156.63,663.16,156.63Z"/>
    <path id="Path_236" data-name="Path 236" class="cls-13" d="M630.11,306.67,592.78,406c-8.67,4-80.91,48.42-98.12,58.13s-50.51,17.54-54.38,20.21-7,6.4-12.15,8.53-13,12.8-14,19.47c4.67.33,6.33-.67,10-4.67s11-7,14-6c3,5,2,11.33-1.33,17.33s-10.34,18.34-19.67,23.34a120.426,120.426,0,0,1-15,7s-2,2.33,3,3.66,14.33-4.66,18.33-5.33a36.609,36.609,0,0,1,11-.67c5.67.34,11.34-10.33,16-11.33s7-.67,11.67-4.33,19.67-30.34,22-30.67c10-3,124-60.67,132.84-67.33C630.13,414.34,673.8,313,673.8,313s-31.34-13-43.34-4"/>
    <path id="Path_237" data-name="Path 237" class="cls-3" d="M682.34,225.7c4.5.47,8.71,2.35,12.79,4.31,4.54,2.18,9.17,4.61,12.28,8.58,5.23,6.69,5,16,4.47,24.48L711,277.39a82,82,0,0,1-1.89,15.41,41.9,41.9,0,0,1-29.47,29.62,35.161,35.161,0,0,1,1,12c-10.88-3.13-22.13-4.86-33-7.94s-21.68-7.68-29.77-15.6a2.41,2.41,0,0,1-.93-1.62,2.33,2.33,0,0,1,.91-1.54,20.09,20.09,0,0,1,5.35-3.59c1.3-.59,2.75-1.11,3.56-2.28a6.65,6.65,0,0,0,.87-2.81l3.63-23.53c.6-3.93,1.21-7.86,1.54-11.82a60.8,60.8,0,0,1,1.2-10.36c2-7.77,8.59-14.45,16.41-17.66C659.4,232,672.79,224.7,682.34,225.7Z"/>
  </g>
</svg>
