<svg xmlns="http://www.w3.org/2000/svg" xmlns:xlink="http://www.w3.org/1999/xlink" viewBox="2582.322 2287.877 234.787 186.99">
  <defs>
    <style>
      .cls-1 {
        fill: url(#linear-gradient);
      }

      .cls-2 {
        fill: #fff;
      }

      .cls-3 {
        fill: url(#linear-gradient-2);
      }
    </style>
    <linearGradient id="linear-gradient" x1="-0.069" y1="0.23" x2="0.82" y2="0.54" gradientUnits="objectBoundingBox">
      <stop offset="0" stop-color="#007c96"/>
      <stop offset="0.33" stop-color="#8bbbc5"/>
      <stop offset="0.8" stop-color="#9fd6e2"/>
      <stop offset="1" stop-color="#2c90a5"/>
    </linearGradient>
    <linearGradient id="linear-gradient-2" y1="0.5" x2="1" y2="0.5" gradientUnits="objectBoundingBox">
      <stop offset="0" stop-color="#231815"/>
      <stop offset="0.73" stop-color="#acdce6" stop-opacity="0.969"/>
      <stop offset="1" stop-color="#9fd6e2"/>
    </linearGradient>
  </defs>
  <g id="Group_3" data-name="Group 3" transform="translate(252.322 -1124.193)">
    <path id="_路徑_" data-name="&lt;路徑&gt;" class="cls-1" d="M49.313,112.058c.186.186.744.636.93.806a5.209,5.209,0,0,1,.682,1.039,9.613,9.613,0,0,0,1.318,1.814,5.256,5.256,0,0,0,2.7-.341,3.954,3.954,0,0,0,3.209-1.55,12.791,12.791,0,0,0,1.1-1.752c.093-.186.295-.45.264-.651a.171.171,0,0,1,0-.078,1.55,1.55,0,0,1,.6-.419A37.831,37.831,0,0,1,70.2,108.631a29.892,29.892,0,0,0,10.853-2.186c2.047-1.039,5.644-3.225,7.117-4.093a24.807,24.807,0,0,0,4.357,9.473c2.155,2.884,5.008,5.272,6.775,8.434a26.513,26.513,0,0,0,3.52,5.613,14.481,14.481,0,0,0,8.341,3.861c3.1.512,6.993,1.008,9.969-.357,2.248-1.039,3.613-3.194,5.458-4.651.6-.512,2.062-1.3,2.279-2.124s-.62-1.659-1.008-2.341a60.794,60.794,0,0,1-3.1-5.985c-.248-.5-.465-.992-.682-1.55l.217.124a11.427,11.427,0,0,1,5.334,6.047,4.28,4.28,0,0,1,.45,1.69c1.4.109,4.419-2.868,4.512-3.69.2-1.861-2.713-3.845-4.729-4.915s-4.465-1.55-6.031-3.271a8.79,8.79,0,0,1-1.55-2.915l-.093-.279c.729.775,1.411,1.55,2.155,2.388a6.559,6.559,0,0,0,5.5,2.434.9.9,0,0,0,.5-.217.884.884,0,0,0,.171-.388c.5-2.062-.574-4.186-.388-6.295.124-1.55.93-2.977,1.008-4.512a1.674,1.674,0,0,0-.6-1.55,1.923,1.923,0,0,0-1.178-.155,48.658,48.658,0,0,0-6.481,1.054,38.76,38.76,0,0,1,3.1-7.256,42.59,42.59,0,0,0,2.527-9.3c.14-1.349.744-4.651-.5-5.8a4.651,4.651,0,0,0-1.923-1.07h.186c-.558-.14,0-.93,1.814-.806,2.14.14,6.372,1.55,12.915-1.287,3.4-1.55,6.667-3.256,10.016-4.806a29.6,29.6,0,0,1,4.062-1.628,9.783,9.783,0,0,1,3.349-.388,5.4,5.4,0,0,1,4.031,1.659,4.651,4.651,0,0,1,.14,3.954c-.279.744-.574,1.783.279,2.264a4.651,4.651,0,0,0,3.333-.233c-2.155,0-2.837-1.411-2.279-3.1s2.5-6.651-.5-7.752a13.582,13.582,0,0,0-4.124-.543c3.69-.527,8.931.744,12.4-2.264s4.031-8.946,1.411-10.853c0,0,2.233,2.388-.961,5.613S161.938,51.2,157.317,52.6c-3.473,1.039-4.651,2.744-6.2,4.946a7.644,7.644,0,0,0,.636-1.287c.264-.574.543-1.132.822-1.705a23.568,23.568,0,0,1,2.372-3.8,10.853,10.853,0,0,1,3.5-3.1,7.287,7.287,0,0,1,1.721-.589,8.665,8.665,0,0,1,.915-.124,4.325,4.325,0,0,0,.9-.109c-.124-.109-.295-.186-.45-.295a3.1,3.1,0,0,0-1.55-.434,6.512,6.512,0,0,0-2.589.434,10.76,10.76,0,0,0-5.349,4.062c-1.116,1.55-2.14,3.1-3.209,4.651a38.761,38.761,0,0,1-3.4,4.372A7.969,7.969,0,0,1,142,62.071c-4.295,1.147-8.465-4.109-12.559-5.814a10.233,10.233,0,0,0-2.419-.589,20.42,20.42,0,0,0,3.783-.543,8.481,8.481,0,0,0,1.256-.4c.326-.14.9-.372.76-.822s-.527-.651-.822-.9a6.2,6.2,0,0,1-1.55-1.923,15.132,15.132,0,0,0-6.837,2.388,7.318,7.318,0,0,0-1.411,1.163,11.52,11.52,0,0,0-.589-3.023.4.4,0,0,0-.14-.233.264.264,0,0,0-.186,0,6.621,6.621,0,0,0-2.915,1.194.62.62,0,0,0-.388.465.589.589,0,0,0,.124.4,2.62,2.62,0,0,0,1.039.806l1.985,1.07a6.109,6.109,0,0,0-4.527,1.55,3.178,3.178,0,0,0-1.659,2.016c-.45,1.55,0,2.93-.806,3.411s-2.465.837-2.884,1.318c-.2.248.124.6.248.9s.388.543.233.822-.62.527-.806.853a.518.518,0,0,0,.248.682l-.31.109c-.124.14,0,.217,0,.372a1.411,1.411,0,0,1,0,.946,1.008,1.008,0,0,0-.109.915c.543,1.209,2.527.915,3.768,1.1a4.109,4.109,0,0,1,3.1,1.3l.124.186A11.458,11.458,0,0,1,118,75.979a.946.946,0,0,1-.155.217,21.8,21.8,0,0,0-3.333-.264,5.659,5.659,0,0,0-2.93.45,5.132,5.132,0,0,0-1.721,1.83,4.309,4.309,0,0,0-1.116-.434.419.419,0,0,0-.31.372v.233c-.682,0-1.24.093-1.55.093-.6-1.55-4.109-9.969-4.775-11.318a31.21,31.21,0,0,1-1.752-4.729c.729-1.55,2.961-4.512,3.1-5.132s.667-2.76.884-3.5a14.078,14.078,0,0,0-.14-3.535,1.628,1.628,0,0,0-.2-.76c-.109-.124-.31.109-.4.186a.853.853,0,0,0-.31.6v1.659a10.636,10.636,0,0,1-.4,1.752c-.093.4,0-1.783-.295-2.295a3.768,3.768,0,0,0-.76-.884,7.131,7.131,0,0,0-.729-.636c-.093,0-.155-.109-.217,0a.543.543,0,0,0-.093.248,1.55,1.55,0,0,0,.279,1.3,3.876,3.876,0,0,1,.388,2.016l-.109.729a3.706,3.706,0,0,0-.574-1.783,8.667,8.667,0,0,0-.884-.791l-.45-.326s-.279-.248-.372-.217-.171.31-.2.388a.93.93,0,0,0,.186.915c.4.465.775.667.775,1.178s-.093,1.318-.093,1.318c-.233-.946-.775-1.892-1.147-1.985l-.543-.155a1.551,1.551,0,0,0-.45,0c-.093,0,0,0,0,.171a1.024,1.024,0,0,0,0,.217.791.791,0,0,0,.295.434c.372.295.6.264.6.574a7.969,7.969,0,0,1-.434,2.093,10.264,10.264,0,0,0-1.55,4.372,4.218,4.218,0,0,0,.2,1.55c.233,1.4,1.318,5.4,1.55,6.512s1.55,6.713,2,7.861a39.69,39.69,0,0,0,1.814,5.1c.682,1.085.636,1.457,1.814,2.062a10.853,10.853,0,0,0,3.551.264c0,.326.14.682.326.76s1.147-.682,1.55-.45h0a3.861,3.861,0,0,0,1.768,1.132h.434a10.652,10.652,0,0,0-.853,3.1,29.239,29.239,0,0,1,0,3.3l-.7-.729a41.116,41.116,0,0,0-6.062-6.2h-.093c-1.643-1.24-2.279-.915-4.233-2.264a24.155,24.155,0,0,1-5.768-5.675.3.3,0,0,0-.186-.155.263.263,0,0,0-.2,0,3.969,3.969,0,0,0-1.55,1.442,18.5,18.5,0,0,0-2.543-2c-.837-.543-1.969,2.868-2.233,3.535a27.8,27.8,0,0,0-1.116,3.318l-1.271-.171c-1.38-.2-12-2.388-13.21-2.62a77.939,77.939,0,0,1-8.962-2.217c-.543-1.008-.357-4.5-1.1-7.489-.171-.7-.357-1.364-.388-1.55a.465.465,0,0,1,0-.155c.729-.388.946-1.55,1.054-2.264A5.644,5.644,0,0,0,61.856,63a4.543,4.543,0,0,0-2.915-2.109c-1.55-.264-4.434,2.992-4.651,3.706A94.933,94.933,0,0,0,51.3,75.079a6.885,6.885,0,0,1-.093,1.38,5.907,5.907,0,0,1-.465,1.4,11.333,11.333,0,0,0-.667,2.481,4.264,4.264,0,0,0,2.109,1.706,4.341,4.341,0,0,0,3.628,1.876,14.761,14.761,0,0,0,2.372-.7,1.124,1.124,0,0,0,.76-.357h0a8.821,8.821,0,0,1,1.8.14c2.047.481,16.791,8.558,24.606,10.186A92.624,92.624,0,0,1,75.376,99.3c-2.264,1.07-12.28,5.318-13.954,5.892a7.458,7.458,0,0,1-6.2-.372,25.612,25.612,0,0,0-4.651-1.69h-.093c-.093,0,0-.109,0-.171a8.837,8.837,0,0,0-.481-1.55,3.411,3.411,0,0,0-3.582-2.233,3.008,3.008,0,0,0-1.426.558h-.093a2.109,2.109,0,0,0-.5,1.55,9.3,9.3,0,0,0-.558,3.209C44.336,106.212,47.747,110.492,49.313,112.058Z" transform="translate(2332.642 3401.675)"/>
    <path id="_路徑_2" data-name="&lt;路徑&gt;" class="cls-2" d="M73.976,51.983c.171.682.682.775,1.116.217l.775-.992a2.713,2.713,0,0,1,2.078-.93H79.2c.7,0,.961-.4.558-.992l-.7-.961A2.775,2.775,0,0,1,78.8,46.06l.465-1.178c.264-.651,0-1.039-.76-.837l-1.209.357a2.791,2.791,0,0,1-2.233-.465l-.977-.853c-.543-.45-1.008-.233-1.039.465V44.82a2.806,2.806,0,0,1-1.132,1.969l-1.07.682c-.589.372-.527.884.124,1.132l1.194.419a2.806,2.806,0,0,1,1.55,1.69Z" transform="translate(2347.283 3399.887)"/>
    <path id="_路徑_3" data-name="&lt;路徑&gt;" class="cls-2" d="M106.657,46.62h-.527a1.892,1.892,0,0,0,.527,0Z" transform="translate(2366.93 3401.963)"/>
    <path id="_路徑_4" data-name="&lt;路徑&gt;" class="cls-3" d="M241.807,23.07C243.481,58.854,227.543,97.492,195.759,126,144.206,172.161,70.5,173.929,31.132,129.942A92.36,92.36,0,0,1,13.86,101.817a92.655,92.655,0,0,0,5.147,27.629,117.912,117.912,0,0,1,6.6,26.683c1.194,9.737.946,19.923,4.9,28.9.822,1.892,2.264,3.969,4.326,3.892,2.636-.109,3.69-3.411,3.892-6.047s.713-5.907,3.24-6.6c3.1-.853,5.225,2.915,5.814,6,1.116,5.892.868,11.938.946,17.939.2,14.993,7.876,11.985,6.543-3.023-.217-2.4-1.333-13.628,2.016-12.745,7.4,1.954,5.861,9.535,6.822,14.838a4.124,4.124,0,0,0,1.318,2.868c1.892,1.225,4.093.186,5.582-1.178a22.374,22.374,0,0,0,3.24-4.868c5.892-8.884,19.148-3.5,27.5-2.7a119.57,119.57,0,0,0,32.559-1.4A139.137,139.137,0,0,0,197.4,162.548c1.752-1.411,3.457-2.884,5.132-4.388C244.133,120.841,258.583,65.955,241.807,23.07Z" transform="translate(2316.14 3389)"/>
  </g>
</svg>
