<svg xmlns="http://www.w3.org/2000/svg" viewBox="3311 5610 50 50">
  <defs>
    <style>
      .cls-1 {
        fill: #241613;
      }

      .cls-2 {
        fill: #bcae85;
      }
    </style>
  </defs>
  <g id="Group_158" data-name="Group 158" transform="translate(3035 2390)">
    <path id="Path_553" data-name="Path 553" class="cls-1" d="M0,0H50V50H0Z" transform="translate(276 3220)"/>
    <path id="Path_552" data-name="Path 552" class="cls-2" d="M32.622,14.89C27.331,9.708,18.879.329,18.781.253L18.561,0l-4.8,5.081c-.465.48-10.484,10.365-12.3,12.665a7.921,7.921,0,0,0-.906,7.407A23.213,23.213,0,0,0,4.01,29.072h0a6.7,6.7,0,0,0,5.536,3.059h.147c2.915,0,7.912-4.626,8.721-5.41,1.984,2.25,4.287,4.4,6.2,5.031a7.758,7.758,0,0,0,2.45.4c3.307,0,6.1-2.149,7.765-4.475C36.541,25.356,38.477,20.6,32.622,14.89Zm-.416.455c3.674,3.59,4.189,6.724,3.527,9.2-1.127,1.694-2.474,3.312-4.581,3.817a7.565,7.565,0,0,1-6.2-1.416,34.525,34.525,0,0,1-3.968-4.121c-.318-.379-.637-.758-.955-1.112-1.127-1.289-2.2-2.553-3.234-3.767l1.592-1.694c.882.86,4.164,4.045,5.879,5.814l.441.455c1.592,1.668,3.111,3.236,4.336,3.236h0a1.274,1.274,0,0,0,.955-.4.666.666,0,0,0,.122-.152,1.348,1.348,0,0,0,.441.076,2.165,2.165,0,0,0,1.813-1.163,4.254,4.254,0,0,0,.392-3.211,4.526,4.526,0,0,0-.294-.809A14.348,14.348,0,0,0,29.364,16.1l-.2-.177C26.841,13.575,18.438,4.5,16.822,2.756L18.561.91C19.933,2.427,27.355,10.618,32.205,15.345Zm-18.25,5.637c.343.506,1.053,1.492,1.96,2.68C14.739,24.85,12,27.353,10.673,27.58a3.413,3.413,0,0,1-2.989-.986,2.233,2.233,0,0,1-.539-1.34,2.159,2.159,0,0,0,.563.076C10.159,25.331,13.074,22.044,13.956,20.982Zm-.367-.556h0c-1.249,1.567-4.385,4.8-6.394,4.2.024-.126.049-.253.073-.4.588-2.174,7.5-9.48,11.293-13.247l8.353,9.505.024.025c.759.733,2.695,2.882,2.719,4.02a.581.581,0,0,1-.122.379.7.7,0,0,1-.514.228h0c-.955,0-2.523-1.618-3.895-3.034l-.441-.455C22.7,19.592,18.61,15.623,18.561,15.6l-.22-.2ZM16.405,3.211c1.641,1.77,10.019,10.82,12.346,13.171l.171.152a13.784,13.784,0,0,1,2.989,3.817,4.047,4.047,0,0,1,.245.708,3.622,3.622,0,0,1-.343,2.73,1.5,1.5,0,0,1-1.568.809v-.076c-.024-1.593-2.572-4.146-2.891-4.475L14.4,5.334ZM1.095,24.875a7.145,7.145,0,0,1,.833-6.724c1.641-2.1,10.509-10.87,12.028-12.387l2.327,2.654c-1.2,1.163-6.933,6.623-8.378,7.963-1.372,1.239-5.512,5.031-5,9.48A8.858,8.858,0,0,0,3.251,27.5,18.259,18.259,0,0,1,1.095,24.875Zm8.5,6.649a6.09,6.09,0,0,1-6.051-5.739c-.465-4.146,3.478-7.761,4.8-8.949,1.445-1.315,7.177-6.8,8.378-7.963l1.421,1.618C16.577,12.059,7.415,21.311,6.68,24.041a3.077,3.077,0,0,0,.563,2.983,4,4,0,0,0,3.527,1.188c1.641-.278,4.654-3.16,5.536-4.045.514.657,1.1,1.39,1.715,2.1C17.263,27,12.192,31.676,9.6,31.524Zm15.237-.354C21.011,29.957,15.352,21.918,14.4,20.5l1.935-2.073c1.029,1.213,2.107,2.477,3.209,3.741.318.354.637.733.955,1.112a32.23,32.23,0,0,0,4.042,4.2A8.325,8.325,0,0,0,29.609,29.2a6.961,6.961,0,0,0,1.641-.177A6.877,6.877,0,0,0,34.582,27a3.068,3.068,0,0,1-.245.354C32.426,30.033,28.9,32.459,24.832,31.17Z" transform="translate(282.795 3229.091)"/>
  </g>
</svg>
